<?xml version="1.0" encoding="iso-8859-1"?>
<!-- Uploaded to: SVG Repo, www.svgrepo.com, Generator: SVG Repo Mixer Tools -->
<svg fill="#000000" height="800px" width="800px" version="1.1" id="Layer_1" xmlns="http://www.w3.org/2000/svg" xmlns:xlink="http://www.w3.org/1999/xlink" 
	 viewBox="0 0 512 512" xml:space="preserve">
<g>
	<g>
		<g>
			<path d="M290.133,362.504v-33.971c0-19.285,10.726-36.096,26.513-44.826c-5.82-6.118-9.446-14.345-9.446-23.441
				c0-18.825,15.309-34.133,34.133-34.133c18.825,0,34.133,15.309,34.133,34.133c0,9.097-3.627,17.323-9.446,23.441
				c15.787,8.73,26.513,25.54,26.513,44.826v33.971c20.676-15.59,34.133-40.277,34.133-68.104c0-47.053-38.281-85.333-85.333-85.333
				S256,247.346,256,294.399C256,322.226,269.457,346.913,290.133,362.504z"/>
			<path d="M358.4,260.267c0-9.412-7.654-17.067-17.067-17.067c-9.412,0-17.067,7.654-17.067,17.067
				c0,9.412,7.654,17.067,17.067,17.067C350.746,277.333,358.4,269.679,358.4,260.267z"/>
			<path d="M341.333,294.4c-18.825,0-34.133,15.309-34.133,34.133v44.015c21.658,9.532,46.609,9.532,68.267,0v-44.015
				C375.467,309.709,360.158,294.4,341.333,294.4z"/>
			<path d="M51.2,422.4h409.6v-256H51.2V422.4z M213.333,371.2H153.6c-4.71,0-8.533-3.814-8.533-8.533s3.823-8.533,8.533-8.533
				h59.733c4.71,0,8.533,3.814,8.533,8.533S218.044,371.2,213.333,371.2z M162.133,268.8h-42.667c-4.71,0-8.533-3.814-8.533-8.533
				c0-4.719,3.823-8.533,8.533-8.533h42.667c4.71,0,8.533,3.814,8.533,8.533C170.667,264.986,166.844,268.8,162.133,268.8z
				 M213.333,320H179.2c-4.71,0-8.533-3.814-8.533-8.533s3.823-8.533,8.533-8.533h34.133c4.71,0,8.533,3.814,8.533,8.533
				S218.044,320,213.333,320z M341.333,192c56.465,0,102.4,45.935,102.4,102.4c0,39.62-22.656,73.984-55.663,90.999
				c-0.06,0.043-0.111,0.102-0.179,0.137c-0.333,0.162-0.666,0.273-0.998,0.435c-2.91,1.459-5.897,2.773-8.969,3.951
				c-0.87,0.341-1.758,0.657-2.637,0.973c-2.603,0.913-5.248,1.724-7.945,2.432c-1.135,0.299-2.27,0.614-3.413,0.879
				c-2.577,0.58-5.205,1.024-7.859,1.408c-1.135,0.162-2.253,0.393-3.396,0.521c-3.729,0.41-7.501,0.666-11.341,0.666
				c-3.84,0-7.612-0.256-11.341-0.666c-1.143-0.128-2.261-0.358-3.396-0.521c-2.654-0.384-5.282-0.828-7.859-1.408
				c-1.143-0.265-2.278-0.58-3.413-0.879c-2.696-0.708-5.342-1.519-7.945-2.432c-0.879-0.316-1.766-0.631-2.637-0.973
				c-3.072-1.178-6.059-2.492-8.969-3.951c-0.333-0.162-0.666-0.273-0.998-0.435c-0.068-0.034-0.119-0.094-0.179-0.137
				c-33.007-17.016-55.663-51.379-55.663-90.999C238.933,237.935,284.868,192,341.333,192z M196.267,251.733h17.067
				c4.71,0,8.533,3.814,8.533,8.533c0,4.719-3.823,8.533-8.533,8.533h-17.067c-4.71,0-8.533-3.814-8.533-8.533
				C187.733,255.548,191.556,251.733,196.267,251.733z M110.933,200.533H179.2c4.71,0,8.533,3.814,8.533,8.533
				s-3.823,8.533-8.533,8.533h-68.267c-4.71,0-8.533-3.814-8.533-8.533S106.223,200.533,110.933,200.533z M76.8,251.733h8.533
				c4.71,0,8.533,3.814,8.533,8.533c0,4.719-3.823,8.533-8.533,8.533H76.8c-4.71,0-8.533-3.814-8.533-8.533
				C68.267,255.548,72.09,251.733,76.8,251.733z M76.8,302.933h68.267c4.71,0,8.533,3.814,8.533,8.533S149.777,320,145.067,320H76.8
				c-4.71,0-8.533-3.814-8.533-8.533S72.09,302.933,76.8,302.933z M76.8,354.133h42.667c4.71,0,8.533,3.814,8.533,8.533
				s-3.823,8.533-8.533,8.533H76.8c-4.71,0-8.533-3.814-8.533-8.533S72.09,354.133,76.8,354.133z"/>
			<path d="M486.4,106.667H290.133V64c0-18.825-15.309-34.133-34.133-34.133c-18.825,0-34.133,15.309-34.133,34.133v42.667H25.6
				c-14.114,0-25.6,11.486-25.6,25.6v324.267c0,14.114,11.486,25.6,25.6,25.6h460.8c14.114,0,25.6-11.486,25.6-25.6V132.267
				C512,118.153,500.514,106.667,486.4,106.667z M256,46.933c6.306,0,11.819,3.43,14.771,8.533h-29.542
				C244.181,50.364,249.694,46.933,256,46.933z M238.933,115.2V72.533h34.133V115.2v8.533h-34.133V115.2z M477.867,430.933
				c0,4.719-3.823,8.533-8.533,8.533H42.667c-4.71,0-8.533-3.814-8.533-8.533V157.867c0-4.719,3.823-8.533,8.533-8.533h426.667
				c4.71,0,8.533,3.814,8.533,8.533V430.933z"/>
		</g>
	</g>
</g>
</svg>